<svg xmlns="http://www.w3.org/2000/svg" width="20" height="20" viewBox="0 0 20 20"><path d="M21,16a1,1,0,0,1,.993.883L22,17v2a3,3,0,0,1-2.824,2.995L19,22H5a3,3,0,0,1-2.995-2.824L2,19V17a1,1,0,0,1,1.993-.117L4,17v2a1,1,0,0,0,.883.993L5,20H19a1,1,0,0,0,.993-.883L20,19V17A1,1,0,0,1,21,16ZM12,2a1,1,0,0,1,1,1v9.585l1.293-1.292a1,1,0,0,1,1.32-.083l.094.083a1,1,0,0,1,.083,1.32l-.083.094-3,3-.044.041h0L12.6,15.8h0l-.111.072h0l-.113.053h0l-.105.035h0l-.149.029h0L12,16h0l-.075,0h0L11.8,15.98h0l-.111-.029h0l-.111-.044h0l-.1-.052h0l-.1-.067a1.006,1.006,0,0,1-.09-.08l-3-3a1,1,0,0,1,1.32-1.5l.094.083L11,12.585V3A1,1,0,0,1,12,2Z" transform="translate(-2 -2)" fill="#fff" fill-rule="evenodd"/></svg>