<svg width="691" height="164" viewBox="0 0 691 164" fill="none" xmlns="http://www.w3.org/2000/svg">
<path d="M111.038 29.8542V56.706L117.895 53.9585V25.7188C117.895 24.3026 117.045 23.0563 115.742 22.5465L60.35 0.311565C59.9817 0.169942 59.6134 0.0849653 59.1884 0.0566406C59.16 0.0566406 59.16 0.0566406 59.16 0.0566406H58.905C58.8767 0.0566406 58.8767 0.0566406 58.8767 0.0566406C58.48 0.0849653 58.0834 0.141617 57.715 0.311565L2.32338 22.5465C1.02004 23.0846 0.170044 24.3309 0.170044 25.7188V160.318C0.170044 161.479 0.736711 162.527 1.70004 163.15L40.7434 163.717H59.075C60.945 163.688 62.475 162.187 62.475 160.289V12.4629C62.475 11.5848 62.9 10.7634 63.6367 10.2819C64.3734 9.80034 65.3084 9.68704 66.13 10.0269L109.367 27.39C110.387 27.7865 111.038 28.7779 111.038 29.8542ZM168.385 66.8179L135.15 53.5053C134.895 53.4204 134.64 53.3354 134.357 53.3354H134.13C133.847 53.3354 133.563 53.4204 133.308 53.5053L100.073 66.8179C99.1667 67.1862 98.5434 68.0642 98.5434 69.0556V161.309C98.5434 162.669 99.6484 163.745 100.98 163.745H134.243C135.575 163.717 136.652 162.64 136.652 161.309V63.2207C136.652 62.3427 137.077 61.5212 137.813 61.0397C138.267 60.7281 138.777 60.5865 139.315 60.5865C139.655 60.5865 139.995 60.6715 140.307 60.7848L163.37 70.047C164.39 70.4435 165.042 71.4066 165.042 72.5112V161.337C165.042 162.697 166.147 163.773 167.478 163.773C168.838 163.773 169.915 162.669 169.915 161.337V69.0556C169.915 68.0642 169.32 67.1862 168.385 66.8179Z" fill="#E99B6E"/>
<path d="M288.257 58.2V60.5L279.757 61.5L281.957 122L289.657 122.6V125H264.257V122.9L271.857 122L269.257 70.4L249.157 125H243.857L219.857 70.9L217.957 120.1L226.357 122.6V125H205.857V122.6L214.157 119.7L216.157 61.5L207.657 60.5V58.2H225.357L249.157 113.9L269.657 58.2H288.257ZM319.02 126.1C312.153 126.1 306.62 123.767 302.42 119.1C298.22 114.433 296.12 108.267 296.12 100.6C296.12 92.9333 298.32 86.7667 302.72 82.1C307.186 77.4333 312.786 75.1 319.52 75.1C326.253 75.1 331.286 76.6333 334.62 79.7C337.953 82.7 339.62 86.9 339.62 92.3C339.62 93.9 339.486 95.5 339.22 97.1H306.92V100.6C306.92 108.067 307.986 113.733 310.12 117.6C312.253 121.4 315.753 123.3 320.62 123.3C327.486 123.3 332.786 120.3 336.52 114.3C337.986 114.767 338.72 115.467 338.72 116.4C338.72 118.067 337.186 120 334.12 122.2C332.653 123.267 330.586 124.2 327.92 125C325.253 125.733 322.286 126.1 319.02 126.1ZM330.12 90.2C330.12 87.1333 329.486 84.5 328.22 82.3C326.486 79.3667 323.686 77.9 319.82 77.9C312.62 77.9 308.42 83.1 307.22 93.5H329.92C330.053 92.3667 330.12 91.2667 330.12 90.2ZM379.256 75C380.99 75 382.356 75.4333 383.356 76.3C384.356 77.1 384.856 78.2333 384.856 79.7C384.856 82.2333 383.89 83.9 381.956 84.7C380.89 83.8333 378.956 83.4 376.156 83.4C373.356 83.4 370.656 84.3333 368.056 86.2C365.523 88 364.256 90.0667 364.256 92.4V122.1L373.256 122.6V125H347.856V122.6L354.456 122.2V79.5L346.556 79.1V76.8L364.256 75.7L363.656 88H364.056C365.19 84.4 367.256 81.3333 370.256 78.8C373.323 76.2667 376.323 75 379.256 75ZM421.151 75C422.884 75 424.251 75.4333 425.251 76.3C426.251 77.1 426.751 78.2333 426.751 79.7C426.751 82.2333 425.784 83.9 423.851 84.7C422.784 83.8333 420.851 83.4 418.051 83.4C415.251 83.4 412.551 84.3333 409.951 86.2C407.417 88 406.151 90.0667 406.151 92.4V122.1L415.151 122.6V125H389.751V122.6L396.351 122.2V79.5L388.451 79.1V76.8L406.151 75.7L405.551 88H405.951C407.084 84.4 409.151 81.3333 412.151 78.8C415.217 76.2667 418.217 75 421.151 75ZM445.945 145.4C444.612 146.933 442.912 148.3 440.845 149.5C438.779 150.767 436.679 151.4 434.545 151.4C432.479 151.4 430.845 150.833 429.645 149.7C428.512 148.633 427.945 147.167 427.945 145.3C427.945 143.5 428.779 141.667 430.445 139.8C432.312 141.933 434.412 143 436.745 143C440.079 143 442.945 141.533 445.345 138.6C447.745 135.733 450.079 131.2 452.345 125L433.145 79.4L428.045 78.8V76.2H449.345V78.8L442.445 79.4L456.745 114.3L469.045 80.7L461.045 78.8V76.2H480.245V78.8L473.245 80.7L456.345 125C455.145 128.067 454.212 130.433 453.545 132.1C452.879 133.767 451.779 136 450.245 138.8C448.779 141.667 447.345 143.867 445.945 145.4ZM533.42 100.6C533.42 108 531.186 114.1 526.72 118.9C522.253 123.7 516.153 126.1 508.42 126.1C500.753 126.1 494.686 123.7 490.22 118.9C485.753 114.1 483.52 108 483.52 100.6C483.52 93.2 485.753 87.1 490.22 82.3C494.686 77.5 500.753 75.1 508.42 75.1C516.153 75.1 522.253 77.5 526.72 82.3C531.186 87.1 533.42 93.2 533.42 100.6ZM494.42 100.6C494.42 116 499.086 123.7 508.42 123.7C517.82 123.7 522.52 116 522.52 100.6C522.52 93.1333 521.453 87.4333 519.32 83.5C517.186 79.5667 513.586 77.6 508.52 77.6C503.453 77.6 499.82 79.5667 497.62 83.5C495.486 87.4333 494.42 93.1333 494.42 100.6ZM551.706 114.2C551.706 118.533 553.473 121.1 557.006 121.9C557.806 122.1 558.573 122.2 559.306 122.2C561.84 122.2 564.473 121.133 567.206 119C569.94 116.8 571.373 113.867 571.506 110.2V101.6C558.306 101.733 551.706 105.933 551.706 114.2ZM555.706 126.2C551.906 126.2 548.64 125.167 545.906 123.1C543.24 120.967 541.906 118 541.906 114.2C541.973 109.067 544.54 105.233 549.606 102.7C554.74 100.167 562.04 98.9 571.506 98.9V90.3C571.506 81.8333 568.44 77.6 562.306 77.6C559.173 77.6 556.64 78.9 554.706 81.5C553.373 83.3 552.706 85.5333 552.706 88.2C552.706 89.3333 552.84 90.5333 553.106 91.8C552.173 92.4667 551.206 92.8 550.206 92.8C549.273 92.8 548.34 92.6 547.406 92.2C545.273 91.4 544.206 89.8667 544.206 87.6C544.206 84.5333 545.306 82 547.506 80C551.106 76.7333 556.073 75.1 562.406 75.1C568.74 75.1 573.34 76.4667 576.206 79.2C579.073 81.8667 580.506 86.1 580.506 91.9V122.2L588.906 122.6L589.006 124.9L572.306 126.1L571.406 117.2C568.34 123.2 563.106 126.2 555.706 126.2ZM622.676 76.2H642.276V78.5L634.876 80.4L615.776 96.8L637.976 121.9L644.676 122.6V125H620.976V122.6L626.576 122.1L607.976 100.2V122.1L614.176 122.6V125H591.676V122.6L598.176 122.1V53.2L589.376 52.8L589.276 50.5L607.976 48.4V99L629.176 80.4L622.676 78.5V76.2ZM668.123 123.6C670.79 123.6 673.09 122.867 675.023 121.4C677.023 119.933 678.023 117.467 678.023 114C678.023 111.667 676.957 109.733 674.823 108.2C672.757 106.667 670.157 105.3 667.023 104.1C663.89 102.833 661.757 101.967 660.623 101.5C659.557 100.967 658.123 100.133 656.323 99C653.057 96.8 651.423 93.6333 651.423 89.5C651.423 85.3667 653.057 81.9333 656.323 79.2C659.59 76.4667 664.357 75.1 670.623 75.1C674.623 75.1 678.023 76 680.823 77.8C683.69 79.5333 685.123 81.6333 685.123 84.1C685.123 86.5667 684.19 88.2667 682.323 89.2C681.323 89.6667 680.323 89.9 679.323 89.9C678.39 89.9 677.457 89.7 676.523 89.3C676.79 88.1 676.923 86.8 676.923 85.4C676.923 84 676.59 82.6 675.923 81.2C674.79 78.8 672.623 77.6 669.423 77.6C666.223 77.6 663.79 78.4667 662.123 80.2C660.457 81.9333 659.623 84.2 659.623 87C659.623 89.8667 660.823 92 663.223 93.4C665.023 94.5333 667.257 95.5667 669.923 96.5C672.59 97.4333 674.39 98.1 675.323 98.5C676.323 98.8333 677.623 99.4333 679.223 100.3C680.823 101.167 682.023 102.067 682.823 103C684.89 105.267 685.923 108.333 685.923 112.2C685.923 116.067 684.19 119.367 680.723 122.1C677.257 124.767 673.023 126.1 668.023 126.1C663.023 126.1 658.623 125.333 654.823 123.8C651.09 122.267 649.223 120.033 649.223 117.1C649.223 114.367 651.257 112.567 655.323 111.7C656.523 119.633 660.79 123.6 668.123 123.6Z" fill="white"/>
</svg>
